<svg xmlns="http://www.w3.org/2000/svg" xmlns:xlink="http://www.w3.org/1999/xlink" width="20px" height="20px" viewBox="0 0 20 20" version="1.1">
    <title>编组</title>
    <g id="组件" stroke="none" stroke-width="1" fill="none" fill-rule="evenodd">
        <g id="子阶段" transform="translate(-14.000000, -43.000000)">
            <g id="编组-4" transform="translate(14.000000, 43.000000)">
                <g id="编组-5" transform="translate(2.000000, 2.000000)">
                    <path d="M6.43093383,6.35583333 C6.50793383,6.44016667 6.61243383,6.48233333 6.71693383,6.48233333 C6.81043383,6.48233333 6.90576716,6.4475 6.97910049,6.37966667 C7.13860049,6.233 7.14776716,5.9855 7.00293383,5.82783333 L5.44093383,4.121 C5.29426716,3.95966667 5.01376716,3.95966667 4.86710049,4.121 L3.30326716,5.82783333 C3.15660049,5.98733333 3.16760049,6.23483333 3.32710049,6.37966667 C3.48660049,6.52633333 3.73226716,6.51533333 3.87893383,6.35583333 L4.76626716,5.38783333 L4.76626716,11.4048333 L3.87893383,10.4368333 C3.73226716,10.2773333 3.48660049,10.2681667 3.32710049,10.413 C3.16760049,10.5596667 3.15843383,10.8071667 3.30326716,10.9648333 L4.86710049,12.6716667 L4.87260049,12.6771667 C4.88360049,12.6881667 4.89826716,12.6991667 4.91110049,12.7101667 L4.93310049,12.7285 C4.94776716,12.7395 4.96426716,12.7468333 4.98260049,12.756 C4.98810049,12.7596667 4.99360049,12.7633333 5.00093383,12.767 C5.02110049,12.7761667 5.04310049,12.7816667 5.06510049,12.7871667 L5.07610049,12.7908333 C5.10176716,12.7963333 5.12743383,12.8 5.15493383,12.8 C5.18243383,12.8 5.20993383,12.7963333 5.23376716,12.7908333 L5.24476716,12.7871667 C5.26676716,12.7816667 5.28876716,12.7761667 5.30893383,12.767 C5.31443383,12.7651667 5.31993383,12.7596667 5.32726716,12.7578333 C5.34376716,12.7486667 5.36026716,12.7413333 5.37676716,12.7303333 C5.38410049,12.7248333 5.39143383,12.7193333 5.39876716,12.712 L5.43726716,12.679 L5.44276716,12.6735 L7.00660049,10.9666667 C7.15326716,10.8071667 7.14226716,10.5596667 6.98276716,10.4148333 C6.82326716,10.2681667 6.57760049,10.2791667 6.43093383,10.4386667 L5.54360049,11.4066667 L5.54360049,5.38783333 L6.43093383,6.35583333 Z M13.1134338,5.99833333 L8.16343383,5.99833333 C7.91043383,5.99833333 7.70510049,5.793 7.70510049,5.54 C7.70510049,5.287 7.91043383,5.08166667 8.16343383,5.08166667 L13.1134338,5.08166667 C13.3664338,5.08166667 13.5717672,5.287 13.5717672,5.54 C13.5717672,5.793 13.3664338,5.99833333 13.1134338,5.99833333 Z M13.1226005,8.84 L8.17260049,8.84 C7.91960049,8.84 7.71426716,8.63466667 7.71426716,8.38166667 C7.71426716,8.12866667 7.91960049,7.92333333 8.17260049,7.92333333 L13.1226005,7.92333333 C13.3756005,7.92333333 13.5809338,8.12866667 13.5809338,8.38166667 C13.5809338,8.63466667 13.3756005,8.84 13.1226005,8.84 Z M13.1226005,11.6816667 L8.17260049,11.6816667 C7.91960049,11.6816667 7.71426716,11.4763333 7.71426716,11.2233333 C7.71426716,10.9703333 7.91960049,10.765 8.17260049,10.765 L13.1226005,10.765 C13.3756005,10.765 13.5809338,10.9703333 13.5809338,11.2233333 C13.5809338,11.4763333 13.3756005,11.6816667 13.1226005,11.6816667 Z" id="形状" fill="#C6C6C6" fill-rule="nonzero"/>
                    <circle id="椭圆形" stroke="#C6C6C6" cx="8" cy="8" r="8"/>
                </g>
            </g>
        </g>
    </g>
</svg>