<svg xmlns="http://www.w3.org/2000/svg" xmlns:xlink="http://www.w3.org/1999/xlink" width="25px" height="25px" viewBox="0 0 25 25" version="1.1">
    <!-- Generator: Sketch 52.5 (67469) - http://www.bohemiancoding.com/sketch -->
    <title>config</title>
    <desc>Created with Sketch.</desc>
    <g id="页面-1" stroke="none" stroke-width="1" fill="none" fill-rule="evenodd">
        <g id="课程详情页-课程管理-" transform="translate(-835.000000, -473.000000)" fill="#999999">
            <g id="课程内容-copy-3" transform="translate(141.000000, 316.000000)">
                <g id="第1节" transform="translate(30.000000, 127.000000)">
                    <path d="M687,40.2265625 C687.359377,40.2890628 687.699217,40.4648423 688.019531,40.7539062 C688.339845,41.0429702 688.5,41.3984354 688.5,41.8203125 L688.5,43.3203125 C688.5,43.7265645 688.339845,44.0546863 688.019531,44.3046875 C687.699217,44.5546887 687.359377,44.726562 687,44.8203125 L685.054688,45.2890625 C684.976562,45.5234387 684.894532,45.7460927 684.808594,45.9570312 C684.722656,46.1679698 684.625001,46.374999 684.515625,46.578125 L685.546875,48.3125 C685.750001,48.6250016 685.875,48.984373 685.921875,49.390625 C685.96875,49.796877 685.843751,50.148436 685.546875,50.4453125 L684.492188,51.5 C684.195311,51.7968765 683.83594,51.9335939 683.414062,51.9101562 C682.992185,51.8867186 682.625002,51.7734385 682.3125,51.5703125 L680.625,50.4921875 C680.406249,50.601563 680.187501,50.7031245 679.96875,50.796875 C679.749999,50.8906255 679.515626,50.9765621 679.265625,51.0546875 L678.84375,53 C678.78125,53.3593768 678.60547,53.6992171 678.316406,54.0195312 C678.027342,54.3398454 677.671877,54.5 677.25,54.5 L675.75,54.5 C675.343748,54.5 675.015626,54.3398454 674.765625,54.0195312 C674.515624,53.6992171 674.34375,53.3593768 674.25,53 L673.78125,51.078125 C673.531249,50.9999996 673.281251,50.9101568 673.03125,50.8085938 C672.781249,50.7070307 672.539064,50.5937506 672.304688,50.46875 L670.570312,51.5703125 C670.273436,51.7734385 669.910158,51.8867186 669.480469,51.9101562 C669.050779,51.9335939 668.695314,51.7968765 668.414062,51.5 L667.335938,50.4453125 C667.054686,50.148436 666.9375,49.796877 666.984375,49.390625 C667.03125,48.984373 667.148437,48.6250016 667.335938,48.3125 L668.4375,46.484375 C668.34375,46.2968741 668.253907,46.1054697 668.167969,45.9101562 C668.082031,45.7148428 668.007813,45.5078136 667.945312,45.2890625 L666,44.8203125 C665.640623,44.726562 665.300783,44.5546887 664.980469,44.3046875 C664.660155,44.0546863 664.5,43.7265645 664.5,43.3203125 L664.5,41.8203125 C664.5,41.3984354 664.660155,41.0429702 664.980469,40.7539062 C665.300783,40.4648423 665.640623,40.2890628 666,40.2265625 L667.921875,39.8046875 C667.984375,39.5859364 668.0625,39.3671886 668.15625,39.1484375 C668.25,38.9296864 668.34375,38.718751 668.4375,38.515625 L667.335938,36.6875 C667.148437,36.3749984 667.03125,36.015627 666.984375,35.609375 C666.9375,35.203123 667.054686,34.851564 667.335938,34.5546875 L668.414062,33.5 C668.695314,33.2031235 669.050779,33.0664061 669.480469,33.0898438 C669.910158,33.1132814 670.273436,33.2265615 670.570312,33.4296875 L672.304688,34.53125 C672.539064,34.4062494 672.777343,34.2929693 673.019531,34.1914062 C673.26172,34.0898432 673.507811,34.0000004 673.757812,33.921875 L674.25,32 C674.328125,31.6406232 674.492186,31.3007829 674.742188,30.9804688 C674.992189,30.6601546 675.328123,30.5 675.75,30.5 L677.25,30.5 C677.671877,30.5 678.023436,30.6601546 678.304688,30.9804688 C678.585939,31.3007829 678.765625,31.6328108 678.84375,31.9765625 L679.265625,33.9453125 C679.500001,34.0234379 679.730468,34.1093745 679.957031,34.203125 C680.183595,34.2968755 680.406249,34.398437 680.625,34.5078125 L682.3125,33.4296875 C682.625002,33.2265615 682.992185,33.1132814 683.414062,33.0898438 C683.83594,33.0664061 684.195311,33.2031235 684.492188,33.5 L685.546875,34.5546875 C685.843751,34.851564 685.96875,35.203123 685.921875,35.609375 C685.875,36.015627 685.750001,36.3749984 685.546875,36.6875 L684.515625,38.421875 C684.625001,38.6406261 684.730468,38.8632801 684.832031,39.0898438 C684.933594,39.3164074 685.015625,39.5546863 685.078125,39.8046875 L687,40.2265625 Z M687,43.203125 L687.023438,41.8671875 C687.007812,41.8515624 686.96875,41.8242189 686.90625,41.7851562 C686.84375,41.7460936 686.773438,41.7187501 686.695312,41.703125 L683.90625,41.0703125 L683.648438,40.25 C683.601562,40.0624991 683.539063,39.8750009 683.460938,39.6875 C683.382812,39.4999991 683.289063,39.3046885 683.179688,39.1015625 L682.804688,38.3515625 L684.28125,35.890625 C684.328125,35.8281247 684.363281,35.7656253 684.386719,35.703125 C684.410156,35.6406247 684.421875,35.5937502 684.421875,35.5625 L683.4375,34.6015625 C683.390625,34.6015625 683.339844,34.6093749 683.285156,34.625 C683.230468,34.6406251 683.179688,34.6640623 683.132812,34.6953125 L680.71875,36.2421875 L679.945312,35.84375 C679.757812,35.7499995 679.570313,35.6601567 679.382812,35.5742188 C679.195312,35.4882808 679.000001,35.4218752 678.796875,35.375 L677.976562,35.09375 L677.367188,32.2578125 C677.351562,32.1953122 677.328125,32.136719 677.296875,32.0820312 L677.25,32 L675.867188,32 C675.835937,32.0312502 675.804688,32.0781247 675.773438,32.140625 C675.742187,32.2031253 675.71875,32.2812495 675.703125,32.375 L675.023438,35.09375 L674.226562,35.3515625 C674.023436,35.4140628 673.820314,35.4882808 673.617188,35.5742188 C673.414061,35.6601567 673.210939,35.757812 673.007812,35.8671875 L672.234375,36.265625 L669.726562,34.671875 L669.609375,34.6132812 C669.5625,34.5898436 669.515625,34.5703126 669.46875,34.5546875 L668.484375,35.5390625 C668.484375,35.5859377 668.496094,35.6406247 668.519531,35.703125 C668.542969,35.7656253 668.578125,35.8359371 668.625,35.9140625 L670.148438,38.4453125 L669.773438,39.171875 C669.679687,39.375001 669.597657,39.5624991 669.527344,39.734375 C669.457031,39.9062509 669.398438,40.0781241 669.351562,40.25 L669.09375,41.0703125 L666.257812,41.703125 C666.210937,41.7187501 666.160157,41.7421873 666.105469,41.7734375 C666.050781,41.8046877 666.015625,41.8203125 666,41.8203125 L666,43.203125 C666.03125,43.2343752 666.078125,43.2617186 666.140625,43.2851562 C666.203125,43.3085939 666.28125,43.3281249 666.375,43.34375 L669.117188,44.046875 L669.375,44.84375 C669.421875,45.0000008 669.480468,45.1601554 669.550781,45.3242188 C669.621094,45.4882821 669.703125,45.6562491 669.796875,45.828125 L670.148438,46.5546875 L668.625,49.109375 C668.578125,49.1718753 668.542969,49.2343747 668.519531,49.296875 C668.496094,49.3593753 668.484375,49.4140623 668.484375,49.4609375 L669.46875,50.421875 C669.515625,50.421875 669.566406,50.4101564 669.621094,50.3867188 C669.675782,50.3632811 669.726562,50.3359377 669.773438,50.3046875 L672.234375,48.734375 L673.007812,49.1328125 C673.210939,49.242188 673.414061,49.3398433 673.617188,49.4257812 C673.820314,49.5117192 674.023436,49.5859372 674.226562,49.6484375 L675.023438,49.90625 L675.726562,52.671875 C675.742188,52.7500004 675.761719,52.816406 675.785156,52.8710938 C675.808594,52.9257815 675.835937,52.9687498 675.867188,53 L677.226562,53 C677.242188,52.9843749 677.269531,52.9453128 677.308594,52.8828125 C677.347656,52.8203122 677.375,52.7578128 677.390625,52.6953125 L678,49.90625 L678.820312,49.625 C679.007813,49.5624997 679.195312,49.4921879 679.382812,49.4140625 C679.570313,49.3359371 679.757812,49.2500005 679.945312,49.15625 L680.71875,48.7578125 L683.179688,50.328125 L683.296875,50.3867188 C683.34375,50.4101564 683.390625,50.4296874 683.4375,50.4453125 L684.421875,49.4609375 C684.421875,49.4140623 684.410156,49.3593753 684.386719,49.296875 C684.363281,49.2343747 684.328125,49.1640629 684.28125,49.0859375 L682.804688,46.6484375 L683.179688,45.8984375 C683.273438,45.7265616 683.355468,45.5507821 683.425781,45.3710938 C683.496094,45.1914054 683.5625,45.0078134 683.625,44.8203125 L683.882812,44.046875 L686.671875,43.34375 C686.75,43.3281249 686.816406,43.3085939 686.871094,43.2851562 C686.925782,43.2617186 686.96875,43.2343752 687,43.203125 Z M676.5,38 C677.750006,38 678.816402,38.4374956 679.699219,39.3125 C680.582036,40.1875044 681.023438,41.2499938 681.023438,42.5 C681.023438,43.7500062 680.582036,44.8124956 679.699219,45.6875 C678.816402,46.5625044 677.750006,47 676.5,47 C675.265619,47 674.207036,46.5625044 673.324219,45.6875 C672.441402,44.8124956 672,43.7500062 672,42.5 C672,41.2499938 672.441402,40.1875044 673.324219,39.3125 C674.207036,38.4374956 675.265619,38 676.5,38 Z M676.5,45.5 C677.328129,45.5 678.035153,45.2070342 678.621094,44.6210938 C679.207034,44.0351533 679.5,43.3281291 679.5,42.5 C679.5,41.6718709 679.207034,40.9648467 678.621094,40.3789062 C678.035153,39.7929658 677.328129,39.5 676.5,39.5 C675.671871,39.5 674.964847,39.7929658 674.378906,40.3789062 C673.792966,40.9648467 673.5,41.6718709 673.5,42.5 C673.5,43.3281291 673.792966,44.0351533 674.378906,44.6210938 C674.964847,45.2070342 675.671871,45.5 676.5,45.5 Z" id=""/>
                </g>
            </g>
        </g>
    </g>
</svg>